solid OpenSCAD_Model
  facet normal -1 0 0
    outer loop
      vertex 0 -20 -5
      vertex 0 20 0
      vertex 0 20 -5
    endloop
  endfacet
  facet normal -1 -0 0
    outer loop
      vertex 0 20 0
      vertex 0 -20 -5
      vertex 0 -20 0
    endloop
  endfacet
  facet normal 0 0 1
    outer loop
      vertex 11 20 0
      vertex 0 20 0
      vertex 11 -18 0
    endloop
  endfacet
  facet normal 0 0 1
    outer loop
      vertex 15 -18 0
      vertex 36 20 0
      vertex 15 20 0
    endloop
  endfacet
  facet normal 0 0 1
    outer loop
      vertex 36 20 0
      vertex 15 -18 0
      vertex 36 -20 0
    endloop
  endfacet
  facet normal 0 0 1
    outer loop
      vertex 0 -20 0
      vertex 15 -18 0
      vertex 11 -18 0
    endloop
  endfacet
  facet normal 0 0 1
    outer loop
      vertex 15 -18 0
      vertex 0 -20 0
      vertex 36 -20 0
    endloop
  endfacet
  facet normal 0 0 1
    outer loop
      vertex 0 -20 0
      vertex 11 -18 0
      vertex 0 20 0
    endloop
  endfacet
  facet normal 1 -0 0
    outer loop
      vertex 36 -20 0
      vertex 36 20 -5
      vertex 36 20 0
    endloop
  endfacet
  facet normal 1 0 0
    outer loop
      vertex 36 20 -5
      vertex 36 -20 0
      vertex 36 -20 -5
    endloop
  endfacet
  facet normal 0 0 -1
    outer loop
      vertex 0 -20 -5
      vertex 36 20 -5
      vertex 36 -20 -5
    endloop
  endfacet
  facet normal -0 0 -1
    outer loop
      vertex 36 20 -5
      vertex 0 -20 -5
      vertex 0 20 -5
    endloop
  endfacet
  facet normal 0 -1 0
    outer loop
      vertex 0 -20 -5
      vertex 36 -20 0
      vertex 0 -20 0
    endloop
  endfacet
  facet normal 0 -1 -0
    outer loop
      vertex 36 -20 0
      vertex 0 -20 -5
      vertex 36 -20 -5
    endloop
  endfacet
  facet normal 0 1 0
    outer loop
      vertex 36 20 0
      vertex 16.2 20 -3.4
      vertex 15 20 0
    endloop
  endfacet
  facet normal 0 1 0
    outer loop
      vertex 0 20 -5
      vertex 16.2 20 -3.4
      vertex 36 20 -5
    endloop
  endfacet
  facet normal 0 1 -0
    outer loop
      vertex 36 20 -5
      vertex 16.2 20 -3.4
      vertex 36 20 0
    endloop
  endfacet
  facet normal 0 1 -0
    outer loop
      vertex 9.8 20 -3.4
      vertex 0 20 0
      vertex 11 20 0
    endloop
  endfacet
  facet normal 0 1 0
    outer loop
      vertex 9.8 20 -3.4
      vertex 0 20 -5
      vertex 0 20 0
    endloop
  endfacet
  facet normal 0 1 0
    outer loop
      vertex 16.2 20 -3.4
      vertex 0 20 -5
      vertex 9.8 20 -3.4
    endloop
  endfacet
  facet normal -0 0 1
    outer loop
      vertex 9.8 20 -3.4
      vertex 16.2 -18 -3.4
      vertex 16.2 20 -3.4
    endloop
  endfacet
  facet normal 0 0 1
    outer loop
      vertex 16.2 -18 -3.4
      vertex 9.8 20 -3.4
      vertex 9.8 -18 -3.4
    endloop
  endfacet
  facet normal 0.94299 0 -0.33282
    outer loop
      vertex 11 -18 0
      vertex 9.8 20 -3.4
      vertex 11 20 0
    endloop
  endfacet
  facet normal 0.94299 0 -0.33282
    outer loop
      vertex 9.8 20 -3.4
      vertex 11 -18 0
      vertex 9.8 -18 -3.4
    endloop
  endfacet
  facet normal 0 1 0
    outer loop
      vertex 16.2 -18 -3.4
      vertex 11 -18 0
      vertex 15 -18 0
    endloop
  endfacet
  facet normal 0 1 0
    outer loop
      vertex 11 -18 0
      vertex 16.2 -18 -3.4
      vertex 9.8 -18 -3.4
    endloop
  endfacet
  facet normal -0.94299 0 -0.33282
    outer loop
      vertex 16.2 -18 -3.4
      vertex 15 20 0
      vertex 16.2 20 -3.4
    endloop
  endfacet
  facet normal -0.94299 -0 -0.33282
    outer loop
      vertex 15 20 0
      vertex 16.2 -18 -3.4
      vertex 15 -18 0
    endloop
  endfacet
endsolid OpenSCAD_Model
