solid OpenSCAD_Model
  facet normal -1 0 0
    outer loop
      vertex -8 -8 0
      vertex -8 15 30
      vertex -8 15 0
    endloop
  endfacet
  facet normal -1 -0 0
    outer loop
      vertex -8 15 30
      vertex -8 -8 0
      vertex -8 -8 30
    endloop
  endfacet
  facet normal 0 0 1
    outer loop
      vertex 0 15 30
      vertex -1.41842 3.74006 30
      vertex 0 3.91229 30
    endloop
  endfacet
  facet normal -0 0 1
    outer loop
      vertex -8 15 30
      vertex -1.41842 3.74006 30
      vertex 0 15 30
    endloop
  endfacet
  facet normal 0 0 1
    outer loop
      vertex -1.41842 3.74006 30
      vertex -8 15 30
      vertex -2.99404 2.65249 30
    endloop
  endfacet
  facet normal 0 0 1
    outer loop
      vertex -8 -8 30
      vertex -3.88377 0.957262 30
      vertex -8 15 30
    endloop
  endfacet
  facet normal 0 0 1
    outer loop
      vertex -2.99404 2.65249 30
      vertex -8 15 30
      vertex -3.88377 0.957262 30
    endloop
  endfacet
  facet normal -0 0 1
    outer loop
      vertex 4 0 30
      vertex 50 -8 30
      vertex 50 0 30
    endloop
  endfacet
  facet normal -0 0 1
    outer loop
      vertex 3.54182 -1.85889 30
      vertex 50 -8 30
      vertex 4 0 30
    endloop
  endfacet
  facet normal -0 0 1
    outer loop
      vertex 2.27226 -3.29193 30
      vertex 50 -8 30
      vertex 3.54182 -1.85889 30
    endloop
  endfacet
  facet normal -0 0 1
    outer loop
      vertex 0.482146 -3.97083 30
      vertex 50 -8 30
      vertex 2.27226 -3.29193 30
    endloop
  endfacet
  facet normal 0 0 1
    outer loop
      vertex 0.482146 -3.97083 30
      vertex -8 -8 30
      vertex 50 -8 30
    endloop
  endfacet
  facet normal 0 0 1
    outer loop
      vertex -1.41842 -3.74006 30
      vertex -8 -8 30
      vertex 0.482146 -3.97083 30
    endloop
  endfacet
  facet normal 0 0 1
    outer loop
      vertex -2.99404 -2.65249 30
      vertex -8 -8 30
      vertex -1.41842 -3.74006 30
    endloop
  endfacet
  facet normal 0 0 1
    outer loop
      vertex -3.88377 -0.957262 30
      vertex -8 -8 30
      vertex -2.99404 -2.65249 30
    endloop
  endfacet
  facet normal 0 0 1
    outer loop
      vertex -3.88377 0.957262 30
      vertex -8 -8 30
      vertex -3.88377 -0.957262 30
    endloop
  endfacet
  facet normal 1 -0 0
    outer loop
      vertex 50 -8 30
      vertex 50 0 0
      vertex 50 0 30
    endloop
  endfacet
  facet normal 1 0 0
    outer loop
      vertex 50 0 0
      vertex 50 -8 30
      vertex 50 -8 0
    endloop
  endfacet
  facet normal 0 0 -1
    outer loop
      vertex 50 -8 0
      vertex 4 0 0
      vertex 50 0 0
    endloop
  endfacet
  facet normal 0 0 -1
    outer loop
      vertex 50 -8 0
      vertex 3.54182 -1.85889 0
      vertex 4 0 0
    endloop
  endfacet
  facet normal 0 0 -1
    outer loop
      vertex 50 -8 0
      vertex 2.27226 -3.29193 0
      vertex 3.54182 -1.85889 0
    endloop
  endfacet
  facet normal 0 0 -1
    outer loop
      vertex 50 -8 0
      vertex 0.482146 -3.97083 0
      vertex 2.27226 -3.29193 0
    endloop
  endfacet
  facet normal -0 0 -1
    outer loop
      vertex -3.88377 -0.957262 0
      vertex -8 -8 0
      vertex -3.88377 0.957262 0
    endloop
  endfacet
  facet normal -0 0 -1
    outer loop
      vertex -2.99404 -2.65249 0
      vertex -8 -8 0
      vertex -3.88377 -0.957262 0
    endloop
  endfacet
  facet normal -0 0 -1
    outer loop
      vertex -1.41842 -3.74006 0
      vertex -8 -8 0
      vertex -2.99404 -2.65249 0
    endloop
  endfacet
  facet normal -0 0 -1
    outer loop
      vertex 0.482146 -3.97083 0
      vertex -8 -8 0
      vertex -1.41842 -3.74006 0
    endloop
  endfacet
  facet normal 0 0 -1
    outer loop
      vertex -8 -8 0
      vertex 0.482146 -3.97083 0
      vertex 50 -8 0
    endloop
  endfacet
  facet normal 0 0 -1
    outer loop
      vertex -1.41842 3.74006 0
      vertex 0 15 0
      vertex 0 3.91229 0
    endloop
  endfacet
  facet normal 0 0 -1
    outer loop
      vertex -8 15 0
      vertex -1.41842 3.74006 0
      vertex -2.99404 2.65249 0
    endloop
  endfacet
  facet normal 0 0 -1
    outer loop
      vertex -8 15 0
      vertex -2.99404 2.65249 0
      vertex -3.88377 0.957262 0
    endloop
  endfacet
  facet normal 0 0 -1
    outer loop
      vertex -8 15 0
      vertex -3.88377 0.957262 0
      vertex -8 -8 0
    endloop
  endfacet
  facet normal 0 0 -1
    outer loop
      vertex -1.41842 3.74006 0
      vertex -8 15 0
      vertex 0 15 0
    endloop
  endfacet
  facet normal 0 -1 0
    outer loop
      vertex -8 -8 0
      vertex 50 -8 30
      vertex -8 -8 30
    endloop
  endfacet
  facet normal 0 -1 -0
    outer loop
      vertex 50 -8 30
      vertex -8 -8 0
      vertex 50 -8 0
    endloop
  endfacet
  facet normal 0 1 -0
    outer loop
      vertex 0 15 0
      vertex -8 15 30
      vertex 0 15 30
    endloop
  endfacet
  facet normal 0 1 0
    outer loop
      vertex -8 15 30
      vertex 0 15 0
      vertex -8 15 0
    endloop
  endfacet
  facet normal 1 -0 0
    outer loop
      vertex 0 3.91229 30
      vertex 0 15 0
      vertex 0 15 30
    endloop
  endfacet
  facet normal 1 0 0
    outer loop
      vertex 0 15 0
      vertex 0 3.91229 30
      vertex 0 3.91229 0
    endloop
  endfacet
  facet normal 0 1 -0
    outer loop
      vertex 50 0 0
      vertex 4 0 30
      vertex 50 0 30
    endloop
  endfacet
  facet normal 0 1 0
    outer loop
      vertex 4 0 30
      vertex 50 0 0
      vertex 4 0 0
    endloop
  endfacet
  facet normal 1 -0 0
    outer loop
      vertex -3.88377 -0.957262 30
      vertex -3.88377 0.957262 0
      vertex -3.88377 0.957262 30
    endloop
  endfacet
  facet normal 1 0 0
    outer loop
      vertex -3.88377 0.957262 0
      vertex -3.88377 -0.957262 30
      vertex -3.88377 -0.957262 0
    endloop
  endfacet
  facet normal 0.120537 -0.992709 0
    outer loop
      vertex -1.41842 3.74006 0
      vertex 0 3.91229 30
      vertex -1.41842 3.74006 30
    endloop
  endfacet
  facet normal 0.120537 -0.992709 0
    outer loop
      vertex 0 3.91229 30
      vertex -1.41842 3.74006 0
      vertex 0 3.91229 0
    endloop
  endfacet
  facet normal 0.568065 -0.822984 0
    outer loop
      vertex -2.99404 2.65249 0
      vertex -1.41842 3.74006 30
      vertex -2.99404 2.65249 30
    endloop
  endfacet
  facet normal 0.568065 -0.822984 0
    outer loop
      vertex -1.41842 3.74006 30
      vertex -2.99404 2.65249 0
      vertex -1.41842 3.74006 0
    endloop
  endfacet
  facet normal -0.354605 0.935016 0
    outer loop
      vertex 2.27226 -3.29193 0
      vertex 0.482146 -3.97083 30
      vertex 2.27226 -3.29193 30
    endloop
  endfacet
  facet normal -0.354605 0.935016 0
    outer loop
      vertex 0.482146 -3.97083 30
      vertex 2.27226 -3.29193 0
      vertex 0.482146 -3.97083 0
    endloop
  endfacet
  facet normal 0.885456 -0.464723 0
    outer loop
      vertex -3.88377 0.957262 30
      vertex -2.99404 2.65249 0
      vertex -2.99404 2.65249 30
    endloop
  endfacet
  facet normal 0.885456 -0.464723 0
    outer loop
      vertex -2.99404 2.65249 0
      vertex -3.88377 0.957262 30
      vertex -3.88377 0.957262 0
    endloop
  endfacet
  facet normal 0.885456 0.464723 0
    outer loop
      vertex -2.99404 -2.65249 30
      vertex -3.88377 -0.957262 0
      vertex -3.88377 -0.957262 30
    endloop
  endfacet
  facet normal 0.885456 0.464723 0
    outer loop
      vertex -3.88377 -0.957262 0
      vertex -2.99404 -2.65249 30
      vertex -2.99404 -2.65249 0
    endloop
  endfacet
  facet normal -0.748511 0.663123 0
    outer loop
      vertex 2.27226 -3.29193 0
      vertex 3.54182 -1.85889 30
      vertex 3.54182 -1.85889 0
    endloop
  endfacet
  facet normal -0.748511 0.663123 0
    outer loop
      vertex 3.54182 -1.85889 30
      vertex 2.27226 -3.29193 0
      vertex 2.27226 -3.29193 30
    endloop
  endfacet
  facet normal -0.970942 0.239316 0
    outer loop
      vertex 3.54182 -1.85889 0
      vertex 4 0 30
      vertex 4 0 0
    endloop
  endfacet
  facet normal -0.970942 0.239316 0
    outer loop
      vertex 4 0 30
      vertex 3.54182 -1.85889 0
      vertex 3.54182 -1.85889 30
    endloop
  endfacet
  facet normal 0.120537 0.992709 -0
    outer loop
      vertex 0.482146 -3.97083 0
      vertex -1.41842 -3.74006 30
      vertex 0.482146 -3.97083 30
    endloop
  endfacet
  facet normal 0.120537 0.992709 0
    outer loop
      vertex -1.41842 -3.74006 30
      vertex 0.482146 -3.97083 0
      vertex -1.41842 -3.74006 0
    endloop
  endfacet
  facet normal 0.568065 0.822984 -0
    outer loop
      vertex -1.41842 -3.74006 0
      vertex -2.99404 -2.65249 30
      vertex -1.41842 -3.74006 30
    endloop
  endfacet
  facet normal 0.568065 0.822984 0
    outer loop
      vertex -2.99404 -2.65249 30
      vertex -1.41842 -3.74006 0
      vertex -2.99404 -2.65249 0
    endloop
  endfacet
  facet normal -1 0 0
    outer loop
      vertex -8 25 0
      vertex -8 48 30
      vertex -8 48 0
    endloop
  endfacet
  facet normal -1 -0 0
    outer loop
      vertex -8 48 30
      vertex -8 25 0
      vertex -8 25 30
    endloop
  endfacet
  facet normal 0 0 1
    outer loop
      vertex 50 48 30
      vertex 4 40 30
      vertex 50 40 30
    endloop
  endfacet
  facet normal 0 0 1
    outer loop
      vertex 50 48 30
      vertex 3.54182 41.8589 30
      vertex 4 40 30
    endloop
  endfacet
  facet normal 0 0 1
    outer loop
      vertex 50 48 30
      vertex 2.27226 43.2919 30
      vertex 3.54182 41.8589 30
    endloop
  endfacet
  facet normal 0 0 1
    outer loop
      vertex 50 48 30
      vertex 0.482146 43.9708 30
      vertex 2.27226 43.2919 30
    endloop
  endfacet
  facet normal 0 0 1
    outer loop
      vertex -3.88377 40.9573 30
      vertex -8 48 30
      vertex -3.88377 39.0427 30
    endloop
  endfacet
  facet normal 0 0 1
    outer loop
      vertex -2.99404 42.6525 30
      vertex -8 48 30
      vertex -3.88377 40.9573 30
    endloop
  endfacet
  facet normal 0 0 1
    outer loop
      vertex -1.41842 43.7401 30
      vertex -8 48 30
      vertex -2.99404 42.6525 30
    endloop
  endfacet
  facet normal 0 0 1
    outer loop
      vertex 0.482146 43.9708 30
      vertex -8 48 30
      vertex -1.41842 43.7401 30
    endloop
  endfacet
  facet normal -0 0 1
    outer loop
      vertex -8 48 30
      vertex 0.482146 43.9708 30
      vertex 50 48 30
    endloop
  endfacet
  facet normal 0 0 1
    outer loop
      vertex -1.41842 36.2599 30
      vertex 0 25 30
      vertex 0 36.0877 30
    endloop
  endfacet
  facet normal 0 0 1
    outer loop
      vertex -8 25 30
      vertex -1.41842 36.2599 30
      vertex -2.99404 37.3475 30
    endloop
  endfacet
  facet normal 0 0 1
    outer loop
      vertex -8 25 30
      vertex -2.99404 37.3475 30
      vertex -3.88377 39.0427 30
    endloop
  endfacet
  facet normal 0 0 1
    outer loop
      vertex -8 25 30
      vertex -3.88377 39.0427 30
      vertex -8 48 30
    endloop
  endfacet
  facet normal 0 0 1
    outer loop
      vertex -1.41842 36.2599 30
      vertex -8 25 30
      vertex 0 25 30
    endloop
  endfacet
  facet normal 1 -0 0
    outer loop
      vertex 50 40 30
      vertex 50 48 0
      vertex 50 48 30
    endloop
  endfacet
  facet normal 1 0 0
    outer loop
      vertex 50 48 0
      vertex 50 40 30
      vertex 50 40 0
    endloop
  endfacet
  facet normal 0 0 -1
    outer loop
      vertex 0 25 0
      vertex -1.41842 36.2599 0
      vertex 0 36.0877 0
    endloop
  endfacet
  facet normal 0 0 -1
    outer loop
      vertex -8 25 0
      vertex -1.41842 36.2599 0
      vertex 0 25 0
    endloop
  endfacet
  facet normal -0 0 -1
    outer loop
      vertex -1.41842 36.2599 0
      vertex -8 25 0
      vertex -2.99404 37.3475 0
    endloop
  endfacet
  facet normal 0 0 -1
    outer loop
      vertex -8 48 0
      vertex -3.88377 39.0427 0
      vertex -8 25 0
    endloop
  endfacet
  facet normal -0 0 -1
    outer loop
      vertex -2.99404 37.3475 0
      vertex -8 25 0
      vertex -3.88377 39.0427 0
    endloop
  endfacet
  facet normal 0 0 -1
    outer loop
      vertex 4 40 0
      vertex 50 48 0
      vertex 50 40 0
    endloop
  endfacet
  facet normal 0 0 -1
    outer loop
      vertex 3.54182 41.8589 0
      vertex 50 48 0
      vertex 4 40 0
    endloop
  endfacet
  facet normal 0 0 -1
    outer loop
      vertex 2.27226 43.2919 0
      vertex 50 48 0
      vertex 3.54182 41.8589 0
    endloop
  endfacet
  facet normal 0 0 -1
    outer loop
      vertex 0.482146 43.9708 0
      vertex 50 48 0
      vertex 2.27226 43.2919 0
    endloop
  endfacet
  facet normal 0 0 -1
    outer loop
      vertex 0.482146 43.9708 0
      vertex -8 48 0
      vertex 50 48 0
    endloop
  endfacet
  facet normal 0 0 -1
    outer loop
      vertex -1.41842 43.7401 0
      vertex -8 48 0
      vertex 0.482146 43.9708 0
    endloop
  endfacet
  facet normal 0 0 -1
    outer loop
      vertex -2.99404 42.6525 0
      vertex -8 48 0
      vertex -1.41842 43.7401 0
    endloop
  endfacet
  facet normal 0 0 -1
    outer loop
      vertex -3.88377 40.9573 0
      vertex -8 48 0
      vertex -2.99404 42.6525 0
    endloop
  endfacet
  facet normal 0 0 -1
    outer loop
      vertex -3.88377 39.0427 0
      vertex -8 48 0
      vertex -3.88377 40.9573 0
    endloop
  endfacet
  facet normal 0 1 -0
    outer loop
      vertex 50 48 0
      vertex -8 48 30
      vertex 50 48 30
    endloop
  endfacet
  facet normal 0 1 0
    outer loop
      vertex -8 48 30
      vertex 50 48 0
      vertex -8 48 0
    endloop
  endfacet
  facet normal 0 -1 0
    outer loop
      vertex -8 25 0
      vertex 0 25 30
      vertex -8 25 30
    endloop
  endfacet
  facet normal 0 -1 -0
    outer loop
      vertex 0 25 30
      vertex -8 25 0
      vertex 0 25 0
    endloop
  endfacet
  facet normal 1 -0 0
    outer loop
      vertex 0 25 30
      vertex 0 36.0877 0
      vertex 0 36.0877 30
    endloop
  endfacet
  facet normal 1 0 0
    outer loop
      vertex 0 36.0877 0
      vertex 0 25 30
      vertex 0 25 0
    endloop
  endfacet
  facet normal 0 -1 0
    outer loop
      vertex 4 40 0
      vertex 50 40 30
      vertex 4 40 30
    endloop
  endfacet
  facet normal 0 -1 -0
    outer loop
      vertex 50 40 30
      vertex 4 40 0
      vertex 50 40 0
    endloop
  endfacet
  facet normal 1 -0 0
    outer loop
      vertex -3.88377 39.0427 30
      vertex -3.88377 40.9573 0
      vertex -3.88377 40.9573 30
    endloop
  endfacet
  facet normal 1 0 0
    outer loop
      vertex -3.88377 40.9573 0
      vertex -3.88377 39.0427 30
      vertex -3.88377 39.0427 0
    endloop
  endfacet
  facet normal 0.120536 0.992709 -0
    outer loop
      vertex 0 36.0877 0
      vertex -1.41842 36.2599 30
      vertex 0 36.0877 30
    endloop
  endfacet
  facet normal 0.120536 0.992709 0
    outer loop
      vertex -1.41842 36.2599 30
      vertex 0 36.0877 0
      vertex -1.41842 36.2599 0
    endloop
  endfacet
  facet normal 0.568066 0.822983 -0
    outer loop
      vertex -1.41842 36.2599 0
      vertex -2.99404 37.3475 30
      vertex -1.41842 36.2599 30
    endloop
  endfacet
  facet normal 0.568066 0.822983 0
    outer loop
      vertex -2.99404 37.3475 30
      vertex -1.41842 36.2599 0
      vertex -2.99404 37.3475 0
    endloop
  endfacet
  facet normal -0.354604 -0.935017 0
    outer loop
      vertex 0.482146 43.9708 0
      vertex 2.27226 43.2919 30
      vertex 0.482146 43.9708 30
    endloop
  endfacet
  facet normal -0.354604 -0.935017 -0
    outer loop
      vertex 2.27226 43.2919 30
      vertex 0.482146 43.9708 0
      vertex 2.27226 43.2919 0
    endloop
  endfacet
  facet normal 0.885456 0.464723 0
    outer loop
      vertex -2.99404 37.3475 30
      vertex -3.88377 39.0427 0
      vertex -3.88377 39.0427 30
    endloop
  endfacet
  facet normal 0.885456 0.464723 0
    outer loop
      vertex -3.88377 39.0427 0
      vertex -2.99404 37.3475 30
      vertex -2.99404 37.3475 0
    endloop
  endfacet
  facet normal 0.885456 -0.464723 0
    outer loop
      vertex -3.88377 40.9573 30
      vertex -2.99404 42.6525 0
      vertex -2.99404 42.6525 30
    endloop
  endfacet
  facet normal 0.885456 -0.464723 0
    outer loop
      vertex -2.99404 42.6525 0
      vertex -3.88377 40.9573 30
      vertex -3.88377 40.9573 0
    endloop
  endfacet
  facet normal -0.74851 -0.663123 0
    outer loop
      vertex 3.54182 41.8589 0
      vertex 2.27226 43.2919 30
      vertex 2.27226 43.2919 0
    endloop
  endfacet
  facet normal -0.74851 -0.663123 0
    outer loop
      vertex 2.27226 43.2919 30
      vertex 3.54182 41.8589 0
      vertex 3.54182 41.8589 30
    endloop
  endfacet
  facet normal -0.970942 -0.239316 0
    outer loop
      vertex 4 40 0
      vertex 3.54182 41.8589 30
      vertex 3.54182 41.8589 0
    endloop
  endfacet
  facet normal -0.970942 -0.239316 0
    outer loop
      vertex 3.54182 41.8589 30
      vertex 4 40 0
      vertex 4 40 30
    endloop
  endfacet
  facet normal 0.120535 -0.992709 0
    outer loop
      vertex -1.41842 43.7401 0
      vertex 0.482146 43.9708 30
      vertex -1.41842 43.7401 30
    endloop
  endfacet
  facet normal 0.120535 -0.992709 0
    outer loop
      vertex 0.482146 43.9708 30
      vertex -1.41842 43.7401 0
      vertex 0.482146 43.9708 0
    endloop
  endfacet
  facet normal 0.568066 -0.822983 0
    outer loop
      vertex -2.99404 42.6525 0
      vertex -1.41842 43.7401 30
      vertex -2.99404 42.6525 30
    endloop
  endfacet
  facet normal 0.568066 -0.822983 0
    outer loop
      vertex -1.41842 43.7401 30
      vertex -2.99404 42.6525 0
      vertex -1.41842 43.7401 0
    endloop
  endfacet
endsolid OpenSCAD_Model
