solid OpenSCAD_Model
  facet normal 0 0 -1
    outer loop
      vertex 11 20.6 0
      vertex 39.4 20.6 0
      vertex 39.4 0 0
    endloop
  endfacet
  facet normal -0 0 -1
    outer loop
      vertex 11 20.6 0
      vertex 0 0 0
      vertex 0 28.2 0
    endloop
  endfacet
  facet normal 0 0 -1
    outer loop
      vertex 11 20.6 0
      vertex 0 28.2 0
      vertex 11 28.2 0
    endloop
  endfacet
  facet normal 0 0 -1
    outer loop
      vertex 39.4 0 0
      vertex 0 0 0
      vertex 11 20.6 0
    endloop
  endfacet
  facet normal 0 -0 1
    outer loop
      vertex 39.4 0 1
      vertex 39.4 20.6 1
      vertex 11 20.6 1
    endloop
  endfacet
  facet normal 0 0 1
    outer loop
      vertex 0 28.2 1
      vertex 0 0 1
      vertex 11 20.6 1
    endloop
  endfacet
  facet normal 0 0 1
    outer loop
      vertex 11 28.2 1
      vertex 0 28.2 1
      vertex 11 20.6 1
    endloop
  endfacet
  facet normal 0 0 1
    outer loop
      vertex 11 20.6 1
      vertex 0 0 1
      vertex 39.4 0 1
    endloop
  endfacet
  facet normal 0 1 0
    outer loop
      vertex 11 20.6 0
      vertex 39.4 20.6 1
      vertex 39.4 20.6 0
    endloop
  endfacet
  facet normal 0 1 0
    outer loop
      vertex 11 20.6 0
      vertex 11 20.6 1
      vertex 39.4 20.6 1
    endloop
  endfacet
  facet normal 1 0 0
    outer loop
      vertex 11 28.2 0
      vertex 11 20.6 1
      vertex 11 20.6 0
    endloop
  endfacet
  facet normal 1 0 -0
    outer loop
      vertex 11 28.2 0
      vertex 11 28.2 1
      vertex 11 20.6 1
    endloop
  endfacet
  facet normal 0 1 0
    outer loop
      vertex 0 28.2 0
      vertex 11 28.2 1
      vertex 11 28.2 0
    endloop
  endfacet
  facet normal 0 1 0
    outer loop
      vertex 0 28.2 0
      vertex 0 28.2 1
      vertex 11 28.2 1
    endloop
  endfacet
  facet normal -1 0 0
    outer loop
      vertex 0 0 0
      vertex 0 28.2 1
      vertex 0 28.2 0
    endloop
  endfacet
  facet normal -1 0 0
    outer loop
      vertex 0 0 0
      vertex 0 0 1
      vertex 0 28.2 1
    endloop
  endfacet
  facet normal 0 -1 0
    outer loop
      vertex 39.4 0 0
      vertex 0 0 1
      vertex 0 0 0
    endloop
  endfacet
  facet normal 0 -1 0
    outer loop
      vertex 39.4 0 0
      vertex 39.4 0 1
      vertex 0 0 1
    endloop
  endfacet
  facet normal 1 0 0
    outer loop
      vertex 39.4 20.6 0
      vertex 39.4 0 1
      vertex 39.4 0 0
    endloop
  endfacet
  facet normal 1 0 -0
    outer loop
      vertex 39.4 20.6 0
      vertex 39.4 20.6 1
      vertex 39.4 0 1
    endloop
  endfacet
endsolid OpenSCAD_Model
