solid OpenSCAD_Model
  facet normal 0 0 -1
    outer loop
      vertex -14.7 7.7 0
      vertex 13.7 6.7 0
      vertex -13.7 6.7 0
    endloop
  endfacet
  facet normal 0 -0 -1
    outer loop
      vertex 13.7 -6.7 0
      vertex 14.7 -7.7 0
      vertex -14.7 -7.7 0
    endloop
  endfacet
  facet normal 0 0 -1
    outer loop
      vertex 14.7 -7.7 0
      vertex 13.7 -6.7 0
      vertex 13.7 6.7 0
    endloop
  endfacet
  facet normal 0 0 -1
    outer loop
      vertex 13.7 6.7 0
      vertex 14.7 7.7 0
      vertex 14.7 -7.7 0
    endloop
  endfacet
  facet normal 0 0 -1
    outer loop
      vertex -14.7 7.7 0
      vertex -13.7 -6.7 0
      vertex -14.7 -7.7 0
    endloop
  endfacet
  facet normal 0 -0 -1
    outer loop
      vertex -13.7 -6.7 0
      vertex 13.7 -6.7 0
      vertex -14.7 -7.7 0
    endloop
  endfacet
  facet normal 0 0 -1
    outer loop
      vertex -14.7 7.7 0
      vertex -13.7 6.7 0
      vertex -13.7 -6.7 0
    endloop
  endfacet
  facet normal -0 0 -1
    outer loop
      vertex 14.7 7.7 0
      vertex 13.7 6.7 0
      vertex -14.7 7.7 0
    endloop
  endfacet
  facet normal 0 -0 1
    outer loop
      vertex -13.7 6.7 7.8
      vertex 13.7 6.7 7.8
      vertex -14.7 7.7 7.8
    endloop
  endfacet
  facet normal 0 0 1
    outer loop
      vertex -14.7 -7.7 7.8
      vertex 14.7 -7.7 7.8
      vertex 13.7 -6.7 7.8
    endloop
  endfacet
  facet normal 0 0 1
    outer loop
      vertex 13.7 6.7 7.8
      vertex 13.7 -6.7 7.8
      vertex 14.7 -7.7 7.8
    endloop
  endfacet
  facet normal 0 -0 1
    outer loop
      vertex 14.7 -7.7 7.8
      vertex 14.7 7.7 7.8
      vertex 13.7 6.7 7.8
    endloop
  endfacet
  facet normal 0 0 1
    outer loop
      vertex -14.7 -7.7 7.8
      vertex -13.7 -6.7 7.8
      vertex -14.7 7.7 7.8
    endloop
  endfacet
  facet normal 0 0 1
    outer loop
      vertex -14.7 -7.7 7.8
      vertex 13.7 -6.7 7.8
      vertex -13.7 -6.7 7.8
    endloop
  endfacet
  facet normal 0 -0 1
    outer loop
      vertex -13.7 -6.7 7.8
      vertex -13.7 6.7 7.8
      vertex -14.7 7.7 7.8
    endloop
  endfacet
  facet normal -0 0 1
    outer loop
      vertex -14.7 7.7 7.8
      vertex 13.7 6.7 7.8
      vertex 14.7 7.7 7.8
    endloop
  endfacet
  facet normal 0 1 0
    outer loop
      vertex -14.7 7.7 0
      vertex 14.7 7.7 7.8
      vertex 14.7 7.7 0
    endloop
  endfacet
  facet normal 0 1 0
    outer loop
      vertex -14.7 7.7 0
      vertex -14.7 7.7 7.8
      vertex 14.7 7.7 7.8
    endloop
  endfacet
  facet normal -1 0 0
    outer loop
      vertex -14.7 -7.7 0
      vertex -14.7 7.7 7.8
      vertex -14.7 7.7 0
    endloop
  endfacet
  facet normal -1 0 0
    outer loop
      vertex -14.7 -7.7 0
      vertex -14.7 -7.7 7.8
      vertex -14.7 7.7 7.8
    endloop
  endfacet
  facet normal 0 -1 0
    outer loop
      vertex 14.7 -7.7 0
      vertex -14.7 -7.7 7.8
      vertex -14.7 -7.7 0
    endloop
  endfacet
  facet normal 0 -1 0
    outer loop
      vertex 14.7 -7.7 0
      vertex 14.7 -7.7 7.8
      vertex -14.7 -7.7 7.8
    endloop
  endfacet
  facet normal 1 0 0
    outer loop
      vertex 14.7 7.7 0
      vertex 14.7 -7.7 7.8
      vertex 14.7 -7.7 0
    endloop
  endfacet
  facet normal 1 0 -0
    outer loop
      vertex 14.7 7.7 0
      vertex 14.7 7.7 7.8
      vertex 14.7 -7.7 7.8
    endloop
  endfacet
  facet normal 1 0 -0
    outer loop
      vertex -13.7 6.7 0
      vertex -13.7 6.7 7.8
      vertex -13.7 -6.7 0
    endloop
  endfacet
  facet normal 1 -0 0
    outer loop
      vertex -13.7 -6.7 7.8
      vertex -13.7 -6.7 0
      vertex -13.7 6.7 7.8
    endloop
  endfacet
  facet normal 0 -1 0
    outer loop
      vertex 13.7 6.7 0
      vertex 13.7 6.7 7.8
      vertex -13.7 6.7 0
    endloop
  endfacet
  facet normal 0 -1 0
    outer loop
      vertex -13.7 6.7 7.8
      vertex -13.7 6.7 0
      vertex 13.7 6.7 7.8
    endloop
  endfacet
  facet normal -1 0 0
    outer loop
      vertex 13.7 -6.7 0
      vertex 13.7 -6.7 7.8
      vertex 13.7 6.7 0
    endloop
  endfacet
  facet normal -1 -0 -0
    outer loop
      vertex 13.7 6.7 7.8
      vertex 13.7 6.7 0
      vertex 13.7 -6.7 7.8
    endloop
  endfacet
  facet normal 0 1 0
    outer loop
      vertex -13.7 -6.7 0
      vertex -13.7 -6.7 7.8
      vertex 13.7 -6.7 0
    endloop
  endfacet
  facet normal 0 1 0
    outer loop
      vertex 13.7 -6.7 7.8
      vertex 13.7 -6.7 0
      vertex -13.7 -6.7 7.8
    endloop
  endfacet
endsolid OpenSCAD_Model
