solid OpenSCAD_Model
  facet normal 0 0 -1
    outer loop
      vertex -34.5 -26.9 0
      vertex 34.5 26.9 0
      vertex 34.5 -26.9 0
    endloop
  endfacet
  facet normal -0 0 -1
    outer loop
      vertex 34.5 26.9 0
      vertex -34.5 -26.9 0
      vertex -34.5 26.9 0
    endloop
  endfacet
  facet normal 1 -0 0
    outer loop
      vertex 34.5 -26.9 2
      vertex 34.5 26.9 0
      vertex 34.5 26.9 2
    endloop
  endfacet
  facet normal 1 0 0
    outer loop
      vertex 34.5 26.9 0
      vertex 34.5 -26.9 2
      vertex 34.5 -26.9 0
    endloop
  endfacet
  facet normal -1 0 0
    outer loop
      vertex -34.5 -26.9 0
      vertex -34.5 26.9 2
      vertex -34.5 26.9 0
    endloop
  endfacet
  facet normal -1 -0 0
    outer loop
      vertex -34.5 26.9 2
      vertex -34.5 -26.9 0
      vertex -34.5 -26.9 2
    endloop
  endfacet
  facet normal 0 -1 0
    outer loop
      vertex -34.5 -26.9 0
      vertex 34.5 -26.9 2
      vertex -34.5 -26.9 2
    endloop
  endfacet
  facet normal 0 -1 -0
    outer loop
      vertex 34.5 -26.9 2
      vertex -34.5 -26.9 0
      vertex 34.5 -26.9 0
    endloop
  endfacet
  facet normal 0 1 -0
    outer loop
      vertex 34.5 26.9 0
      vertex -34.5 26.9 2
      vertex 34.5 26.9 2
    endloop
  endfacet
  facet normal 0 1 0
    outer loop
      vertex -34.5 26.9 2
      vertex 34.5 26.9 0
      vertex -34.5 26.9 0
    endloop
  endfacet
  facet normal 0 0 1
    outer loop
      vertex 34.5 26.9 2
      vertex 33.5 25.9 2
      vertex 34.5 -26.9 2
    endloop
  endfacet
  facet normal 0 0 1
    outer loop
      vertex 34.5 26.9 2
      vertex -33.5 25.9 2
      vertex 33.5 25.9 2
    endloop
  endfacet
  facet normal 0 0 1
    outer loop
      vertex -33.5 25.9 2
      vertex -34.5 26.9 2
      vertex -33.5 -25.9 2
    endloop
  endfacet
  facet normal -0 0 1
    outer loop
      vertex -34.5 26.9 2
      vertex -33.5 25.9 2
      vertex 34.5 26.9 2
    endloop
  endfacet
  facet normal -0 0 1
    outer loop
      vertex 33.5 -25.9 2
      vertex 34.5 -26.9 2
      vertex 33.5 25.9 2
    endloop
  endfacet
  facet normal -0 0 1
    outer loop
      vertex -33.5 -25.9 2
      vertex 34.5 -26.9 2
      vertex 33.5 -25.9 2
    endloop
  endfacet
  facet normal 0 0 1
    outer loop
      vertex -33.5 -25.9 2
      vertex -34.5 -26.9 2
      vertex 34.5 -26.9 2
    endloop
  endfacet
  facet normal 0 0 1
    outer loop
      vertex -34.5 -26.9 2
      vertex -33.5 -25.9 2
      vertex -34.5 26.9 2
    endloop
  endfacet
  facet normal -0 0 1
    outer loop
      vertex -33.5 25.9 1
      vertex 33.5 -25.9 1
      vertex 33.5 25.9 1
    endloop
  endfacet
  facet normal 0 0 1
    outer loop
      vertex 33.5 -25.9 1
      vertex -33.5 25.9 1
      vertex -33.5 -25.9 1
    endloop
  endfacet
  facet normal -1 0 0
    outer loop
      vertex 33.5 -25.9 1
      vertex 33.5 25.9 2
      vertex 33.5 25.9 1
    endloop
  endfacet
  facet normal -1 -0 0
    outer loop
      vertex 33.5 25.9 2
      vertex 33.5 -25.9 1
      vertex 33.5 -25.9 2
    endloop
  endfacet
  facet normal 1 -0 0
    outer loop
      vertex -33.5 -25.9 2
      vertex -33.5 25.9 1
      vertex -33.5 25.9 2
    endloop
  endfacet
  facet normal 1 0 0
    outer loop
      vertex -33.5 25.9 1
      vertex -33.5 -25.9 2
      vertex -33.5 -25.9 1
    endloop
  endfacet
  facet normal 0 1 -0
    outer loop
      vertex 33.5 -25.9 1
      vertex -33.5 -25.9 2
      vertex 33.5 -25.9 2
    endloop
  endfacet
  facet normal 0 1 0
    outer loop
      vertex -33.5 -25.9 2
      vertex 33.5 -25.9 1
      vertex -33.5 -25.9 1
    endloop
  endfacet
  facet normal 0 -1 0
    outer loop
      vertex -33.5 25.9 1
      vertex 33.5 25.9 2
      vertex -33.5 25.9 2
    endloop
  endfacet
  facet normal 0 -1 -0
    outer loop
      vertex 33.5 25.9 2
      vertex -33.5 25.9 1
      vertex 33.5 25.9 1
    endloop
  endfacet
endsolid OpenSCAD_Model
